<?xml version="1.0" encoding="utf-8"?>
<!-- Generator: Adobe Illustrator 21.0.0, SVG Export Plug-In . SVG Version: 6.00 Build 0)  -->
<svg version="1.1" id="Layer_1" xmlns="http://www.w3.org/2000/svg" xmlns:xlink="http://www.w3.org/1999/xlink" x="0px" y="0px"
	 viewBox="0 0 188.7 138.6" style="enable-background:new 0 0 188.7 138.6;" xml:space="preserve">
<style type="text/css">
	.st0{fill:#FFFFFF;}
	.st1{fill:none;}
</style>
<g>
	<g>
		<path class="st0" d="M0,27.2h71.1v8.2H0V27.2z M30.9,138.6H0.7v-9.5L16.5,96H1.8V85.3h28.3v10L14.6,128h16.2V138.6z M65,138.6
			l-1.8-10.4h-9.8l-1.5,10.4H39.3L51,85.3H66l11.6,53.3H65z M135.8,49.7c-2.9,2.4-6.9,3.7-11.9,3.7h-17.6V0h16.2
			c2.4,0,4.6,0.2,6.6,0.6c2,0.4,3.8,1.2,5.3,2.2c1.5,1.1,2.7,2.5,3.6,4.2c0.9,1.8,1.3,4,1.3,6.7c0,2.4-0.5,4.5-1.4,6.5
			c-0.9,2-2.5,3.5-4.7,4.7v0.1c1.4,0.8,2.6,1.6,3.5,2.4c0.9,0.8,1.6,1.7,2.1,2.7c0.5,1,0.8,2.1,1,3.3c0.2,1.2,0.3,2.7,0.3,4.3
			C140.1,43.3,138.7,47.2,135.8,49.7z M176,53.3l-1.8-10.4h-9.8l-1.5,10.4h-12.6L162,0h15.1l11.6,53.3H176z"/>
	</g>
	<path class="st1" d="M125.2,31.5c-0.8-0.4-1.7-0.6-2.8-0.7c-1.1-0.1-2.3-0.1-3.6-0.2v13.2c1.6,0,2.9-0.1,4-0.1c1.1,0,2-0.3,2.8-0.7
		c0.7-0.4,1.3-1.1,1.6-2c0.3-0.9,0.5-2.3,0.5-4.1c0-1.6-0.2-2.7-0.6-3.6C126.5,32.5,125.9,31.9,125.2,31.5z"/>
	<path class="st1" d="M124.8,20c0.7-0.4,1.2-1,1.5-1.8c0.3-0.8,0.5-2,0.5-3.6c0-1.3-0.2-2.3-0.6-3c-0.4-0.7-1-1.2-1.7-1.5
		c-0.7-0.3-1.6-0.5-2.6-0.5c-1,0-2,0-3.1,0V21c1.4-0.1,2.6-0.2,3.6-0.2C123.3,20.7,124.1,20.4,124.8,20z"/>
	<polygon class="st1" points="58.4,95 54.7,118.9 62,118.9 58.5,95 	"/>
	<polygon class="st1" points="169.4,9.7 165.8,33.6 173,33.6 169.6,9.7 	"/>
</g>
</svg>
