<?xml version="1.0" encoding="utf-8"?>
<!-- Generator: Adobe Illustrator 21.0.0, SVG Export Plug-In . SVG Version: 6.00 Build 0)  -->
<svg version="1.1" id="Layer_1" xmlns="http://www.w3.org/2000/svg" xmlns:xlink="http://www.w3.org/1999/xlink" x="0px" y="0px"
	 viewBox="0 0 133.1 105.5" style="enable-background:new 0 0 133.1 105.5;" xml:space="preserve">
<style type="text/css">
	.st0{fill:#FFFFFF;}
</style>
<g>
	<path class="st0" d="M101.7,25.9c0-1-0.1-2-0.2-2.9c-0.4-2.7-1.5-4.8-3.2-6.2c-0.7-0.6-1.6-1.1-2.5-1.6c-0.8-0.4-1.7-0.7-2.7-0.9
		c0-0.6,0-1.3,0-2c0-5.8-7.8-5.2-7.8-11.7c0-0.1,0-0.2,0-0.2c0-0.2,0-0.3,0-0.3c0,0,0-0.1,0-0.1h-7.7c0,0.2,0,0.7,0,2.1
		c0,7,7.8,5.8,7.8,11.5c0,0.2,0,0.4,0,0.7c-1,0.2-1.9,0.5-2.7,0.9c-0.9,0.4-1.8,0.9-2.5,1.6c-2.3,1.9-3.4,5-3.4,9.2
		c0,0.2,0,0.5,0,0.7h0l0,0.8h0v1.2h0c0,0.3,0,0.6,0,0.9c0,1,0.1,2,0.2,2.9c0.4,2.7,1.5,4.8,3.2,6.2c0.7,0.6,1.6,1.1,2.5,1.6
		c1.8,0.8,4,1.3,6.5,1.3c2.5,0,4.7-0.5,6.5-1.3c0.9-0.4,1.8-0.9,2.5-1.6c2.3-1.9,3.4-5,3.4-9.2c0-0.2,0-0.5,0-0.7h0l0-2.3h0
		C101.7,26.4,101.7,26.2,101.7,25.9z M93.7,28.7c0,1.4-0.1,2.5-0.4,3.2c-0.3,0.7-0.7,1.2-1.2,1.6c-0.6,0.3-1.3,0.5-2.2,0.5h-1.1
		c-0.9,0-1.6-0.2-2.2-0.5c-0.6-0.3-1-0.8-1.2-1.6c-0.3-0.7-0.4-1.8-0.4-3.2c0,0,0,0,0-0.1h0v-1.8h0c0,0,0,0,0-0.1
		c0-1.4,0.1-2.5,0.4-3.2c0.3-0.7,0.7-1.2,1.2-1.5c0.6-0.3,1.3-0.5,2.2-0.5h1.1c0.9,0,1.6,0.2,2.2,0.5c0.6,0.3,1,0.8,1.2,1.5
		c0.3,0.7,0.4,1.8,0.4,3.2c0,0,0,0,0,0.1h0v0.6h0L93.7,28.7L93.7,28.7C93.7,28.7,93.7,28.7,93.7,28.7z"/>
	<path class="st0" d="M133.1,28.6L133.1,28.6c0,0,0-2.6,0-4.8c0-9.8-10.7-11.7-10.7-18.5c0-2.1,0-5.2,0-5.2h-8c0,0,0,2,0,5.4
		c0,9.3,10.7,10.2,10.7,20c0,3.1,0,3.8,0,3.9l0,0c0,1.1-0.2,2.1-0.4,2.7c-0.3,0.7-0.7,1.2-1.2,1.6c-0.4,0.2-1,0.4-1.6,0.5h-2.2
		c-0.6-0.1-1.2-0.2-1.6-0.5c-0.6-0.3-1-0.8-1.2-1.6c-0.3-0.7-0.4-1.8-0.4-3.2c0,0,0,0,0-0.1h0v-3.1c0-1.5,0.3-2.6,0.6-3.4h-7.8
		c-0.4,1.1-0.8,2.4-0.8,3.4v3.1h0c0,0.3,0,0.6,0,0.9c0,4.2,1.1,7.3,3.4,9.2c0.7,0.6,1.6,1.1,2.5,1.6c1.8,0.8,4,1.3,6.5,1.3
		c2.5,0,4.7-0.5,6.5-1.3c0.9-0.4,1.8-0.9,2.5-1.6c2.3-1.9,3.4-5,3.4-9.2C133.1,29.2,133.1,28.9,133.1,28.6z"/>
	<path class="st0" d="M31.3,89.9c0-1-0.1-2-0.2-2.9c-0.4-2.7-1.5-4.8-3.2-6.2c-0.7-0.6-1.6-1.1-2.5-1.6c-1.2-0.5-2.5-0.9-4.1-1.1
		c0.1-0.4,0.1-0.9,0.1-1.4h0v-2v-0.2v-0.9c0,0,0-0.4,0-0.4c0-3.2-0.9-5.5-2.6-7c-0.6-0.5-1.2-0.9-1.9-1.2c-1.4-0.7-3.2-1-5.2-1H9.7
		c-2,0-3.8,0.3-5.2,1c-0.7,0.3-1.3,0.7-1.9,1.2C1,67.4,0.1,69.5,0,72.4h0v2v0.2v0.9c0,0,0,0.4,0,0.4c0,3.2,0.9,5.5,2.6,7
		c0.6,0.5,1.2,0.9,1.9,1.2c0.8,0.4,1.7,0.6,2.6,0.8c-0.5,1.4-0.7,3.1-0.7,5c0,0.2,0,0.5,0,0.7h0l0,0.8h0v1.2h0c0,0.3,0,0.6,0,0.9
		c0,1,0.1,2,0.2,2.9c0.4,2.7,1.5,4.8,3.2,6.2c0.7,0.6,1.6,1.1,2.5,1.6c1.8,0.8,4,1.3,6.5,1.3c2.5,0,4.7-0.5,6.5-1.3
		c0.9-0.4,1.8-0.9,2.5-1.6c2.3-1.9,3.4-5,3.4-9.2c0-0.2,0-0.5,0-0.7h0l0-2.3h0C31.3,90.3,31.3,90.1,31.3,89.9z M7.5,74.6v-0.8
		c0-1,0.1-2.2,0.3-2.5c0.2-0.5,0.5-0.9,1-1.2c0.4-0.2,1-0.4,1.6-0.4c0,0,0,0,0,0h0.8c0,0,0,0,0,0c0.7,0,1.2,0.2,1.6,0.4
		c0.4,0.2,0.8,0.6,1,1.2c0.2,0.5,0.3,1.7,0.3,2.8l0,0.3h0v0.8c0,1-0.1,2.2-0.3,2.5c-0.2,0.5-0.5,0.9-1,1.2c-0.4,0.2-1,0.4-1.6,0.4
		c0,0,0,0-0.1,0h-0.7c0,0,0,0-0.1,0c-0.7,0-1.2-0.2-1.6-0.4c-0.4-0.2-0.8-0.6-1-1.2c-0.2-0.5-0.3-1.7-0.3-2.8L7.5,74.6L7.5,74.6z
		 M23.2,92.6c0,1.4-0.1,2.5-0.4,3.2c-0.3,0.7-0.7,1.2-1.2,1.6c-0.6,0.3-1.3,0.5-2.2,0.5h-1.1c-0.9,0-1.6-0.2-2.2-0.5
		c-0.6-0.3-1-0.8-1.2-1.6c-0.3-0.7-0.4-1.8-0.4-3.2c0,0,0,0,0-0.1h0v-1.8h0c0,0,0,0,0-0.1c0-1.4,0.1-2.5,0.4-3.2
		c0.3-0.7,0.7-1.2,1.2-1.5c0.6-0.3,1.3-0.5,2.2-0.5h1.1c0.9,0,1.6,0.2,2.2,0.5c0.6,0.3,1,0.8,1.2,1.5c0.3,0.7,0.4,1.8,0.4,3.2
		c0,0,0,0,0,0.1h0v0.6h0L23.2,92.6L23.2,92.6C23.2,92.6,23.2,92.6,23.2,92.6z"/>
	<path class="st0" d="M62.7,92.5L62.7,92.5c0,0,0-2.6,0-4.8c0-9.8-10.7-11.7-10.7-18.5c0-2.1,0-5.2,0-5.2h-8c0,0,0,2,0,5.4
		c0,9.3,10.7,10.2,10.7,20c0,3.1,0,3.8,0,3.9l0,0c0,1.1-0.2,2.1-0.4,2.7C54,96.5,53.5,97,53,97.3c-0.4,0.2-1,0.4-1.6,0.5h-2.2
		c-0.6-0.1-1.2-0.2-1.6-0.5c-0.6-0.3-1-0.8-1.2-1.6c-0.3-0.7-0.4-1.8-0.4-3.2c0,0,0,0,0-0.1h0v-3.1c0-1.5,0.3-2.6,0.6-3.4h-7.8
		c-0.4,1.1-0.8,2.4-0.8,3.4v3.1h0c0,0.3,0,0.6,0,0.9c0,4.2,1.1,7.3,3.4,9.2c0.7,0.6,1.6,1.1,2.5,1.6c1.8,0.8,4,1.3,6.5,1.3
		c2.5,0,4.7-0.5,6.5-1.3c0.9-0.4,1.8-0.9,2.5-1.6c2.3-1.9,3.4-5,3.4-9.2C62.7,93.1,62.7,92.8,62.7,92.5z"/>
	<path class="st0" d="M0,27.6v-6h52.4v6H0z"/>
</g>
</svg>
